<?xml version="1.0" standalone="no"?>
<!DOCTYPE svg PUBLIC "-//W3C//DTD SVG 20010904//EN"
 "http://www.w3.org/TR/2001/REC-SVG-20010904/DTD/svg10.dtd">
<svg version="1.0" xmlns="http://www.w3.org/2000/svg"
 width="564.000000pt" height="600.000000pt" viewBox="0 0 564.000000 600.000000"
 preserveAspectRatio="xMidYMid meet">
<metadata>
Created by potrace 1.16, written by Peter Selinger 2001-2019
</metadata>
<g transform="translate(0.000000,600.000000) scale(0.100000,-0.100000)"
fill="#000000" stroke="none">
<path d="M323 5784 c-8 -20 5 -32 42 -36 l30 -3 2 -95 c2 -121 -1 -128 -40
-132 -41 -4 -49 -34 -13 -48 l26 -10 0 -270 0 -270 -22 -5 c-13 -2 -39 -4 -58
-2 -29 2 -35 -1 -35 -18 0 -14 8 -21 28 -23 l27 -3 0 -114 0 -114 -27 -3 c-20
-2 -28 -9 -28 -23 0 -18 8 -20 96 -23 109 -3 134 8 155 69 l11 34 15 -36 c18
-40 65 -79 98 -79 102 0 161 156 103 268 l-23 42 55 0 c30 0 55 -2 55 -3 0 -2
-8 -19 -17 -38 -9 -19 -19 -62 -21 -96 -4 -51 0 -69 19 -103 42 -75 106 -90
164 -39 60 53 74 180 26 247 l-22 32 30 0 c21 0 31 -5 31 -15 0 -8 7 -15 15
-15 12 0 15 -19 15 -115 0 -94 -3 -117 -15 -121 -8 -4 -15 -15 -15 -25 0 -17
8 -19 59 -19 33 0 63 5 66 10 5 7 11 8 19 1 15 -13 275 -11 301 2 33 17 44 39
45 88 0 60 -28 87 -98 96 -29 3 -57 12 -63 19 -16 20 -3 61 22 67 30 8 77 -18
81 -45 2 -13 11 -24 21 -26 15 -3 17 5 17 57 0 60 -11 81 -33 63 -8 -7 -26 -7
-55 1 l-42 11 0 273 0 273 24 10 c26 9 46 38 46 64 0 22 -20 20 -46 -5 -39
-36 -104 -22 -104 22 0 17 8 19 69 19 84 0 99 12 78 63 -19 43 -52 67 -95 67
-67 0 -118 -89 -93 -160 10 -31 10 -31 -20 -28 -23 2 -39 14 -62 46 l-32 43
25 20 c14 11 37 25 53 31 51 19 21 51 -45 46 -39 -3 -43 -5 -40 -27 2 -26 -25
-64 -39 -55 -5 3 -8 38 -7 77 1 40 -1 78 -5 85 -11 17 -62 15 -77 -3 -15 -18
-5 -35 21 -35 19 0 19 -6 17 -112 l-3 -113 -47 -3 -47 -3 -3 93 -3 93 -49 3
c-27 2 -53 -1 -59 -7 -15 -15 10 -41 40 -41 23 0 24 -2 21 -67 l-3 -68 -65 0
-65 0 -5 130 -5 130 -63 3 c-57 3 -63 1 -60 -15 2 -13 14 -19 41 -21 l37 -3 0
-115 0 -114 -125 0 -125 0 0 115 0 115 29 0 c37 0 46 13 25 34 -22 23 -172 23
-181 0z m277 -451 c25 -32 26 -74 1 -104 -19 -23 -19 -24 5 -52 33 -39 33
-105 2 -135 -27 -24 -70 -42 -104 -42 l-24 0 0 179 c0 118 4 181 11 183 31 10
90 -6 109 -29z m350 18 c0 -13 -8 -21 -22 -23 -23 -3 -23 -5 -23 -143 0 -139
0 -140 23 -143 15 -2 22 -9 20 -20 -3 -14 -17 -18 -71 -20 -61 -3 -67 -1 -67
17 0 13 8 21 23 23 22 3 22 5 22 143 0 138 0 140 -22 143 -15 2 -23 10 -23 23
0 17 8 19 70 19 62 0 70 -2 70 -19z m310 -1 c11 -11 20 -31 20 -45 0 -18 -5
-25 -20 -25 -11 0 -20 6 -20 14 0 7 -7 20 -16 27 -14 11 -20 10 -40 -14 -21
-25 -24 -38 -24 -117 0 -96 10 -137 36 -147 22 -8 54 30 54 63 0 17 -6 24 -20
24 -13 0 -20 7 -20 20 0 17 7 20 41 20 l42 0 -6 -56 c-7 -65 -27 -101 -63
-110 -70 -18 -104 40 -104 176 0 128 30 190 91 190 16 0 38 -9 49 -20z m53
-490 c-31 -64 20 -130 101 -130 57 0 86 -48 50 -84 -19 -19 -64 -21 -87 -3
-10 6 -21 26 -25 42 -5 17 -16 31 -25 33 -14 3 -17 -5 -17 -48 0 -43 -3 -51
-16 -46 -9 3 -22 6 -30 6 -8 0 -31 34 -51 75 l-37 75 39 40 c21 22 45 40 52
40 8 0 16 7 19 15 4 8 14 15 24 15 17 0 17 -2 3 -30z m-633 -15 c34 -36 39
-127 11 -172 -17 -27 -27 -33 -54 -33 -57 0 -86 57 -72 140 14 82 69 114 115
65z m251 12 c41 -31 52 -117 24 -183 -14 -33 -17 -35 -57 -32 -52 4 -68 28
-68 108 0 93 50 146 101 107z"/>
<path d="M3331 5737 c-10 -25 -13 -186 -5 -229 3 -16 12 -28 20 -28 11 0 14
16 14 66 l0 66 48 -53 c77 -87 83 -92 94 -81 8 8 -5 29 -40 69 l-51 58 29 23
c63 49 24 132 -62 132 -31 0 -40 -4 -47 -23z"/>
<path d="M4100 5735 c0 -23 -4 -25 -43 -25 -33 0 -51 -7 -77 -29 -33 -27 -35
-32 -35 -94 0 -50 4 -70 19 -86 21 -23 74 -28 108 -10 17 9 23 8 30 -5 20 -36
28 2 28 135 0 117 -2 139 -15 139 -9 0 -15 -9 -15 -25z m-16 -77 c33 -47 14
-128 -35 -149 -24 -9 -33 -9 -54 5 -21 14 -25 24 -25 65 0 34 6 56 21 75 26
33 71 35 93 4z"/>
<path d="M5114 5727 c-10 -26 1 -270 12 -274 7 -2 13 23 17 70 4 41 9 81 13
90 13 35 68 32 78 -6 3 -12 6 -52 6 -89 0 -54 3 -68 15 -68 12 0 15 17 15 90
0 84 -2 93 -26 116 -19 20 -31 24 -52 19 -15 -4 -31 -7 -37 -8 -5 -1 -11 15
-13 36 -3 36 -18 49 -28 24z"/>
<path d="M4280 5710 c-8 -5 -25 -7 -37 -3 -23 5 -23 5 -23 -112 0 -104 2 -116
17 -113 13 2 17 18 21 83 5 93 12 111 48 118 48 9 64 -20 64 -118 0 -78 2 -85
20 -85 18 0 20 6 19 73 0 39 -5 88 -12 107 -17 49 -77 75 -117 50z"/>
<path d="M3557 5686 c-73 -68 -41 -206 49 -206 47 0 69 13 84 50 20 48 -2 60
-28 16 -17 -28 -28 -36 -50 -36 -33 0 -62 27 -62 58 0 20 5 22 69 22 39 0 73
5 76 10 10 17 -15 79 -38 95 -31 22 -70 18 -100 -9z"/>
<path d="M3775 5687 c-18 -15 -25 -28 -21 -36 6 -9 14 -7 31 9 31 29 80 32 80
5 0 -12 -6 -19 -14 -17 -29 6 -97 -28 -114 -57 -22 -38 -21 -53 4 -85 23 -29
73 -35 110 -13 17 10 23 10 26 0 3 -7 11 -13 19 -13 11 0 14 18 13 88 -1 128
-5 136 -61 140 -36 2 -51 -2 -73 -21z"/>
<path d="M4492 5690 c-41 -25 -52 -48 -52 -113 0 -44 4 -58 24 -76 25 -24 64
-26 110 -6 17 8 19 5 14 -38 -7 -63 -31 -97 -68 -97 -36 0 -57 21 -66 65 -7
39 -34 49 -34 13 0 -13 9 -42 19 -65 16 -35 25 -43 56 -49 44 -8 78 6 102 42
14 22 18 55 21 184 l4 157 -49 1 c-33 0 -60 -6 -81 -18z m78 -25 c7 -9 14 -36
16 -61 3 -37 -1 -50 -21 -70 -47 -46 -95 -17 -95 59 0 64 67 112 100 72z"/>
<path d="M4802 5680 c-12 -5 -27 -21 -34 -35 -14 -32 8 -60 57 -69 40 -8 58
-27 53 -58 -2 -19 -9 -23 -38 -23 -27 0 -37 5 -45 23 -5 12 -15 22 -22 22 -18
0 -16 -31 3 -58 34 -49 144 -12 144 48 0 30 -42 68 -84 75 -25 5 -36 12 -36
25 0 34 63 42 80 10 14 -25 30 -26 30 -1 0 43 -52 63 -108 41z"/>
<path d="M5351 5665 c-96 -82 -30 -250 81 -204 40 16 77 90 46 89 -7 -1 -22
-15 -33 -33 -11 -18 -30 -33 -42 -35 -26 -4 -63 30 -63 57 0 16 11 19 70 25
38 4 72 11 75 16 10 17 -26 87 -51 99 -36 16 -49 14 -83 -14z"/>
<path d="M1592 5503 c-5 -10 -12 -30 -16 -46 -5 -21 -19 -33 -60 -51 -30 -13
-60 -34 -66 -46 -16 -30 -3 -39 17 -11 14 21 68 51 91 51 5 0 12 -39 15 -86 8
-138 40 -139 71 -2 10 43 27 92 40 110 23 36 60 48 69 24 9 -24 -11 -81 -38
-106 -29 -28 -32 -40 -7 -40 18 -1 52 -22 52 -33 0 -4 -18 -16 -40 -27 -102
-52 -83 -154 25 -130 60 14 90 50 90 110 0 28 1 50 3 50 1 0 11 -9 23 -21 29
-29 70 -22 88 16 l15 30 8 -32 c13 -52 82 -57 94 -7 8 31 24 31 24 0 0 -33 25
-53 45 -36 8 7 15 21 15 31 0 22 4 23 32 8 15 -8 18 -17 13 -36 -24 -97 72
-77 105 22 8 23 16 32 26 28 16 -6 19 -39 4 -48 -14 -9 -13 -48 2 -63 18 -18
53 -14 73 8 14 15 16 29 12 64 -5 32 -2 47 8 56 8 7 15 20 15 29 -1 13 -5 11
-19 -6 -38 -45 -76 -17 -76 55 0 56 -23 76 -54 48 -25 -22 -27 -56 -6 -96 13
-26 13 -33 -4 -73 -25 -58 -41 -68 -39 -24 1 19 -2 39 -5 44 -4 6 0 24 8 41
20 39 10 62 -26 62 -21 0 -34 -9 -53 -36 -24 -36 -25 -37 -31 -13 -3 13 1 41
10 61 20 48 20 112 -1 128 -13 11 -19 10 -36 -8 -18 -17 -22 -37 -26 -107 -4
-75 -7 -85 -21 -78 -9 4 -36 6 -60 5 -25 -1 -53 5 -65 13 -30 22 -45 19 -77
-16 -29 -31 -31 -32 -69 -19 -44 15 -48 21 -23 41 18 15 43 70 43 94 0 24 -37
55 -66 55 -33 0 -90 -57 -99 -100 -10 -45 -25 -46 -25 -2 0 27 7 45 20 57 30
27 23 69 -12 73 -18 2 -30 -3 -36 -15z"/>
<path d="M3420 5490 c0 -6 6 -23 14 -39 18 -33 46 -178 46 -234 0 -26 -7 -48
-19 -61 -28 -31 -61 -97 -61 -123 0 -27 27 -55 48 -51 13 2 36 35 48 66 1 1
13 -4 28 -12 34 -18 90 -6 116 24 45 52 49 135 9 178 -25 27 -54 28 -98 1 -18
-11 -34 -19 -35 -17 -1 2 -8 44 -15 93 -12 89 -44 176 -68 183 -7 2 -13 -1
-13 -8z m218 -272 c19 -19 14 -89 -8 -125 -21 -35 -64 -52 -89 -36 -17 11 -18
26 -6 57 7 15 5 17 -13 11 -26 -7 -25 -8 -11 34 19 53 97 89 127 59z"/>
<path d="M4290 5428 l0 -73 -46 -15 c-25 -8 -45 -19 -44 -25 1 -11 11 -11 53
0 l27 7 1 -93 c1 -147 12 -209 38 -230 31 -25 37 -24 74 13 33 33 22 55 -12
24 -23 -21 -47 -20 -56 2 -5 9 -10 77 -13 151 -5 147 -3 151 54 151 24 0 33
-5 37 -21 7 -24 27 -16 27 10 0 28 -25 43 -67 39 l-38 -3 -3 68 c-2 51 -6 67
-17 67 -12 0 -15 -16 -15 -72z"/>
<path d="M3833 5365 c-32 -14 -93 -94 -93 -122 0 -7 -4 -13 -10 -13 -5 0 -10
18 -10 40 0 49 -17 53 -26 5 -4 -26 -1 -43 12 -63 10 -15 21 -51 25 -81 10
-73 40 -105 93 -98 57 8 118 72 127 136 7 42 -17 33 -35 -13 -44 -114 -156
-129 -156 -20 0 36 3 41 47 64 50 27 103 90 103 125 0 12 -8 29 -18 38 -22 20
-19 20 -59 2z"/>
<path d="M4024 5362 c-23 -15 -36 -54 -29 -89 5 -27 16 -40 53 -62 74 -45 92
-66 92 -106 0 -43 -29 -75 -69 -75 -38 0 -61 23 -61 61 0 31 23 41 34 14 8
-21 26 -19 26 3 0 41 -60 59 -80 23 -34 -65 13 -131 93 -131 69 0 111 85 76
153 -12 23 -15 25 -89 80 -55 40 -64 77 -27 102 28 18 70 8 80 -19 8 -20 27
-21 27 -1 0 28 -38 55 -77 55 -21 0 -43 -4 -49 -8z"/>
<path d="M4647 5363 c-4 -3 -7 -69 -7 -145 0 -107 3 -139 13 -136 7 3 13 26
15 54 3 46 26 84 50 84 4 0 18 -31 31 -70 14 -44 28 -70 37 -70 19 0 18 4 -11
90 l-25 74 20 21 c20 21 27 45 13 45 -5 0 -30 -18 -58 -40 l-50 -40 -3 63 c-3
61 -11 84 -25 70z"/>
<path d="M5269 5356 c-1 -9 -2 -22 -3 -28 -1 -9 -14 -12 -36 -10 -47 4 -100
-32 -118 -80 -38 -99 48 -197 125 -143 20 14 23 14 32 -2 7 -13 13 -15 21 -7
16 16 9 276 -7 282 -7 2 -14 -3 -14 -12z m-35 -72 c9 -3 21 -24 27 -47 9 -33
8 -47 -7 -79 -39 -87 -138 -50 -120 46 12 61 56 97 100 80z"/>
<path d="M4956 5315 c-21 -11 -32 -12 -42 -4 -21 17 -25 -5 -22 -122 2 -84 6
-104 18 -104 12 0 16 17 18 85 2 60 7 89 19 102 19 21 68 24 80 6 4 -7 10 -53
13 -103 4 -71 8 -90 20 -90 12 0 16 15 18 67 4 99 -11 146 -53 164 -41 17 -34
17 -69 -1z"/>
<path d="M2557 5260 c-4 -15 -14 -20 -40 -20 -19 0 -40 -7 -47 -15 -17 -21 -4
-32 20 -17 11 7 29 12 40 12 18 0 20 -7 20 -68 0 -69 -24 -162 -42 -162 -5 0
-7 8 -5 18 17 60 17 92 2 98 -9 4 -21 2 -27 -4 -6 -6 -24 -8 -39 -5 -17 3 -35
0 -44 -7 -15 -13 -20 -65 -9 -94 7 -19 35 -21 52 -4 9 9 12 8 16 -3 2 -8 7
-22 10 -31 7 -24 43 -23 56 2 15 28 30 16 30 -24 0 -45 23 -74 47 -60 33 19
102 187 83 199 -5 3 -18 -25 -29 -62 -11 -38 -27 -77 -35 -88 -13 -18 -14 -17
-20 25 -3 25 -2 92 2 150 l7 104 92 -3 c53 -1 100 2 112 8 29 16 46 50 32 64
-8 8 -21 0 -46 -27 -34 -38 -36 -39 -88 -32 -28 3 -60 6 -69 6 -10 0 -24 14
-33 30 -18 34 -40 39 -48 10z"/>
<path d="M4924 4985 c-7 -19 -14 -39 -14 -45 0 -13 -13 -13 -28 2 -19 19 -104
15 -135 -8 -58 -42 -74 -124 -33 -171 34 -39 87 -38 156 5 29 18 55 30 59 27
3 -4 6 -57 6 -118 0 -89 -4 -119 -18 -145 -35 -64 -109 -88 -180 -59 -44 19
-61 41 -53 72 14 56 126 85 182 48 25 -16 26 -16 23 2 -9 46 -96 58 -167 24
-57 -28 -81 -73 -61 -115 44 -90 206 -90 273 -1 24 33 36 165 24 277 -5 51 -2
80 15 137 17 59 18 74 8 87 -21 25 -41 19 -57 -19z m-38 -80 c46 -30 17 -102
-52 -131 -67 -28 -114 -7 -114 50 1 89 89 132 166 81z"/>
<path d="M2201 4944 c-11 -15 -21 -37 -21 -49 0 -17 -9 -25 -41 -34 -45 -14
-89 -51 -89 -76 0 -22 14 -18 25 7 10 22 35 38 83 53 21 6 22 4 22 -58 0 -97
8 -129 33 -125 17 2 24 17 38 85 18 84 30 115 57 146 17 20 51 23 53 5 4 -49
-16 -99 -50 -125 -9 -6 -14 -13 -11 -15 3 -2 18 -10 34 -18 42 -21 41 -32 -5
-54 -52 -24 -76 -58 -63 -94 20 -56 94 -54 152 4 31 31 34 38 29 79 -3 32 -1
45 8 45 7 0 15 -9 18 -20 7 -29 36 -36 68 -18 24 14 30 14 40 2 14 -17 51 -18
67 -2 9 9 13 7 17 -8 21 -64 53 -70 99 -19 l33 36 6 -53 c11 -91 55 -100 92
-19 20 45 30 51 38 21 7 -28 41 -25 61 5 9 13 22 22 29 20 19 -7 33 7 48 50
l14 40 3 -47 c3 -39 7 -48 22 -48 13 0 25 14 39 45 11 25 23 45 26 45 3 0 3
-29 -1 -65 -7 -65 -7 -65 19 -65 17 0 33 10 46 29 16 22 26 27 46 23 29 -5 59
17 81 60 16 31 17 38 6 38 -4 0 -16 -16 -26 -35 -21 -38 -31 -43 -40 -19 -10
26 -7 46 10 65 20 22 12 49 -15 49 -29 0 -51 -38 -51 -90 0 -25 -7 -54 -16
-65 -13 -18 -14 -15 -8 37 6 51 5 56 -14 62 -12 4 -31 2 -42 -4 -12 -7 -22
-10 -23 -8 -25 50 -40 57 -63 29 -12 -14 -25 -19 -41 -15 -25 7 -25 6 -43 -63
-15 -58 -28 -54 -32 10 -2 42 -6 52 -21 52 -14 0 -25 -19 -45 -79 -15 -43 -31
-79 -37 -80 -13 -1 -18 117 -10 211 l7 72 82 -6 c65 -4 88 -2 114 11 32 17 56
48 45 60 -14 14 -33 4 -48 -24 -15 -28 -19 -30 -74 -30 -88 0 -119 9 -123 34
-4 28 -38 34 -45 7 -6 -24 -41 -28 -49 -6 -4 8 -17 15 -30 15 -29 0 -48 -33
-64 -118 -13 -63 -18 -70 -37 -51 -16 16 -41 -1 -66 -46 -27 -48 -43 -54 -51
-19 -5 20 -1 33 15 51 21 21 21 25 7 39 -23 23 -57 9 -65 -26 -3 -16 -13 -36
-23 -45 -17 -15 -21 -15 -52 1 -18 9 -35 18 -37 20 -2 2 8 17 22 33 68 81 24
171 -63 126 -23 -12 -40 -34 -60 -78 l-29 -62 -1 46 c0 34 5 51 20 64 27 25
23 69 -6 73 -14 2 -29 -7 -43 -24z m605 -116 c-7 -80 -35 -154 -67 -174 -37
-22 -34 76 5 181 14 39 26 71 26 73 0 1 10 2 21 2 21 0 22 -3 15 -82z"/>
<path d="M4051 4948 c3 -101 26 -293 34 -293 6 0 13 42 16 95 3 52 11 107 19
122 16 34 47 45 67 25 14 -13 13 -23 -3 -84 -19 -74 -14 -120 13 -130 29 -11
43 25 43 114 0 80 1 84 25 95 20 9 28 9 37 0 20 -20 13 -112 -12 -170 -25 -57
-19 -81 10 -42 38 50 53 161 28 215 -15 32 -51 42 -82 22 -22 -15 -25 -15 -41
3 -26 29 -59 25 -88 -10 -31 -36 -37 -37 -37 -7 0 33 -11 67 -21 67 -5 0 -9
-10 -8 -22z"/>
<path d="M5225 4948 c-36 -28 -55 -76 -55 -138 0 -107 54 -163 137 -141 56 15
143 111 101 111 -7 0 -20 -13 -29 -28 -34 -61 -132 -77 -164 -28 -36 55 -25
153 23 201 29 30 69 35 56 8 -15 -36 -10 -77 10 -81 24 -5 46 23 46 56 0 21 2
23 15 12 20 -17 33 -4 14 14 -17 16 -74 36 -104 36 -12 0 -35 -10 -50 -22z"/>
<path d="M3625 4920 c-45 -18 -60 -48 -60 -122 0 -61 3 -72 24 -89 30 -25 102
-26 123 -1 21 23 38 78 38 118 0 60 -73 115 -125 94z m69 -51 c28 -22 34 -58
15 -106 -13 -34 -26 -43 -61 -43 -46 0 -74 80 -47 133 23 43 52 48 93 16z"/>
<path d="M4601 4918 c-7 -7 -17 -21 -24 -31 -12 -18 -14 -18 -50 3 -79 47
-152 -5 -151 -107 2 -100 80 -159 155 -116 23 13 33 15 36 6 8 -22 41 -58 48
-52 3 4 -3 25 -15 47 l-21 40 36 68 c28 52 35 77 33 108 -3 43 -26 59 -47 34z
m-61 -66 c23 -28 12 -139 -15 -159 -57 -41 -131 23 -122 105 7 61 32 85 82 79
22 -3 47 -14 55 -25z"/>
<path d="M3583 4602 c-7 -4 -19 -24 -28 -45 -12 -28 -21 -37 -40 -37 -19 0
-28 -9 -43 -42 -14 -33 -27 -45 -52 -53 -18 -5 -38 -19 -44 -30 -16 -28 -27
-35 -62 -35 -36 0 -23 25 -150 -287 -66 -163 -94 -244 -92 -266 l3 -32 412 -3
c392 -2 415 -3 445 -22 42 -25 79 -25 111 0 24 19 43 20 443 22 l419 3 3 22
c3 20 -12 63 -141 413 l-53 145 -38 3 c-30 3 -41 10 -54 33 -12 19 -28 31 -50
35 -27 5 -37 15 -55 53 -18 38 -27 46 -53 49 -26 3 -34 10 -47 44 l-17 41
-112 -6 c-128 -6 -206 -21 -260 -48 -37 -19 -39 -19 -98 1 -84 28 -323 57
-347 42z m822 -48 c12 -29 155 -441 155 -447 0 -1 -29 -3 -63 -3 -35 -1 -90
-9 -123 -19 -83 -23 -242 -109 -302 -161 -28 -24 -55 -44 -61 -44 -8 0 -11 96
-11 320 l0 320 38 19 c33 17 90 31 182 45 14 2 58 4 97 5 l73 1 15 -36z m-590
11 c47 -9 103 -24 123 -34 l37 -19 -4 -299 c-2 -164 -5 -300 -7 -302 -1 -2
-18 6 -37 18 -95 59 -357 141 -489 153 l-27 3 48 145 c56 171 111 320 124 338
13 17 124 16 232 -3z m680 -75 c15 -24 165 -472 160 -479 -2 -5 -35 -2 -72 5
-37 7 -87 13 -111 14 -26 0 -41 4 -37 10 3 6 42 10 87 10 l80 0 -5 33 c-2 17
-28 95 -57 172 -94 254 -92 245 -70 245 10 0 22 -5 25 -10z m-975 -7 c0 -5
-27 -81 -60 -171 -33 -90 -64 -181 -70 -203 -6 -22 -13 -46 -16 -53 -4 -11 10
-12 63 -9 37 3 79 0 93 -5 22 -9 18 -11 -30 -12 -30 0 -84 -7 -119 -15 -35 -9
-65 -14 -67 -12 -7 7 188 487 197 487 5 0 9 -3 9 -7z m-90 -88 c0 -3 -38 -99
-84 -214 -46 -115 -80 -214 -76 -220 5 -9 34 -9 116 0 146 16 364 0 425 -31
22 -12 39 -23 37 -25 -2 -2 -32 3 -68 10 -111 24 -251 29 -411 15 -82 -7 -152
-11 -155 -7 -3 3 31 92 76 199 118 278 118 278 129 278 6 0 11 -2 11 -5z
m1173 -32 c9 -21 52 -126 96 -232 45 -107 81 -201 81 -208 0 -18 -6 -17 -186
18 -151 30 -163 31 -244 20 -82 -12 -252 -63 -278 -84 -7 -5 -15 -7 -18 -5 -3
3 34 25 82 48 74 36 101 43 188 52 95 9 203 6 324 -8 48 -6 52 -5 52 13 0 11
-31 110 -70 219 -38 109 -70 199 -70 201 0 2 6 3 14 3 8 0 21 -17 29 -37z m89
-35 c9 -7 38 -76 66 -153 28 -77 67 -183 86 -235 20 -52 36 -95 36 -96 0 -6
-480 -10 -585 -5 l-140 6 65 22 c134 46 278 51 495 17 49 -7 93 -10 98 -5 8 8
-19 86 -112 321 -27 68 -47 128 -45 132 7 11 18 10 36 -4z m-1356 -22 c-5 -19
-92 -230 -162 -394 l-14 -32 167 6 c128 5 197 2 288 -10 219 -29 198 -34 -155
-35 -184 0 -340 3 -347 7 -8 5 11 62 66 197 115 282 117 285 142 285 17 0 20
-4 15 -24z"/>
<path d="M2040 4531 c-194 -90 -345 -168 -358 -184 -15 -18 -32 -448 -32 -826
l0 -253 39 -39 c45 -46 74 -49 139 -17 39 18 46 19 56 6 36 -48 83 -55 159
-26 25 10 31 8 58 -18 42 -40 95 -36 196 15 43 21 130 62 193 91 187 85 220
103 225 125 7 35 26 726 20 736 -4 5 -18 9 -33 9 -15 0 -48 10 -72 23 -47 23
-47 23 -49 110 -1 43 -3 47 -25 47 -29 0 -91 25 -131 54 -16 11 -34 21 -40 21
-5 0 -11 21 -13 48 -2 36 -7 47 -20 47 -26 0 -115 45 -136 69 -11 11 -26 21
-35 21 -9 0 -72 -26 -141 -59z m294 -119 c13 -21 8 -23 -411 -199 -8 -3 -13 3
-13 16 0 25 15 33 240 125 161 67 175 71 184 58z m-545 -162 c23 -6 49 -9 56
-6 22 8 26 -22 21 -148 -3 -67 -8 -229 -11 -361 -3 -132 -8 -291 -11 -353 l-7
-114 -31 -19 c-42 -26 -65 -24 -98 8 -28 27 -28 27 -28 162 0 171 20 841 26
860 4 11 7 11 22 -2 9 -8 37 -20 61 -27z m761 -20 c0 -14 -18 -25 -72 -45 -58
-22 -284 -114 -345 -142 -22 -9 -16 55 6 66 10 6 88 36 172 66 85 31 170 62
189 70 40 15 50 12 50 -15z m-585 -115 c22 -8 58 -14 79 -15 l39 0 -7 -222
c-17 -546 -23 -631 -43 -645 -45 -34 -103 -28 -129 13 -16 23 -16 56 -5 412
10 326 17 473 25 472 0 0 19 -7 41 -15z m731 -322 c-4 -159 -9 -310 -13 -336
-6 -48 -6 -48 -72 -81 -138 -69 -322 -149 -328 -143 -7 8 16 642 26 688 6 31
11 33 181 95 96 35 184 63 194 64 18 0 19 -9 12 -287z m-507 157 c23 -6 49
-10 59 -8 25 4 26 -17 12 -395 -13 -326 -14 -339 -34 -352 -44 -29 -73 -29
-102 0 l-27 27 7 277 c9 375 16 473 32 467 7 -3 31 -10 53 -16z"/>
<path d="M1135 4546 c-16 -12 -17 -16 -6 -30 7 -9 25 -16 40 -16 l26 0 -2
-107 c-1 -59 -6 -108 -10 -109 -4 -1 -20 -5 -35 -8 -29 -7 -37 -33 -18 -52 7
-7 4 -16 -8 -27 -17 -16 -20 -16 -32 -2 -7 8 -23 15 -35 15 -13 0 -25 6 -28
14 -3 8 -16 16 -29 18 -22 3 -23 6 -28 138 l-5 135 -42 3 c-37 3 -43 0 -43
-17 0 -13 8 -21 23 -23 14 -2 23 -11 25 -26 3 -21 1 -22 -36 -16 -34 5 -44 2
-72 -23 -28 -25 -34 -38 -38 -86 -3 -42 0 -63 12 -81 19 -30 3 -46 -22 -22
-13 11 -17 29 -15 72 2 67 -16 119 -45 126 -12 3 -38 -3 -58 -14 -33 -18 -38
-18 -46 -4 -5 9 -22 16 -38 16 -23 0 -30 -4 -30 -20 0 -11 7 -23 15 -26 11 -5
15 -22 15 -69 0 -35 -4 -67 -10 -70 -6 -4 -10 7 -10 24 0 35 -22 42 -39 14 -8
-14 -10 -5 -11 39 0 97 -26 137 -88 138 -70 0 -122 -52 -88 -89 15 -16 15 -19
1 -31 -9 -8 -15 -29 -15 -56 0 -38 -4 -46 -24 -54 -59 -22 -92 -118 -62 -182
18 -37 46 -58 91 -68 l30 -6 2 -279 c2 -154 3 -283 3 -287 0 -5 230 -8 510 -8
l510 0 -2 298 -3 297 -47 3 c-27 2 -48 7 -48 11 0 4 7 22 16 40 15 29 16 86 3
131 -3 10 5 16 24 18 l27 3 0 -76 c0 -71 2 -79 29 -106 42 -42 81 -38 106 12
18 33 19 65 5 74 -15 9 -40 -14 -40 -35 0 -22 -24 -32 -39 -17 -6 6 -11 39
-11 73 l0 63 38 3 c29 2 37 7 37 23 0 15 -8 21 -35 25 -32 5 -35 8 -32 33 5
36 -15 62 -34 46 -8 -6 -14 -22 -14 -35 0 -32 -16 -38 -40 -14 -11 11 -29 20
-40 20 -19 0 -20 7 -20 110 l0 110 25 0 c27 0 44 25 29 40 -5 5 -41 11 -79 15
-53 4 -75 2 -90 -9z m-793 -392 c4 -36 31 -53 58 -37 40 25 31 -9 -13 -53 -70
-69 -127 -52 -127 38 0 65 75 112 82 52z m894 12 c23 -17 27 -94 5 -119 -17
-21 -74 -22 -90 -3 -24 28 -24 79 -1 109 24 30 56 35 86 13z m-734 -458 l3
-163 48 -3 c39 -3 47 -6 47 -23 0 -17 -7 -19 -70 -19 l-70 0 0 185 c0 178 1
185 20 185 18 0 20 -8 22 -162z m433 144 c0 -7 -11 -18 -25 -25 -24 -12 -24
-13 -23 -147 1 -131 2 -135 24 -140 12 -3 24 -11 27 -18 6 -18 -30 -27 -93
-24 -46 3 -56 7 -53 20 2 10 13 18 26 20 22 3 23 5 20 145 -3 139 -4 142 -25
145 -22 3 -30 21 -16 36 13 13 138 2 138 -12z m330 -2 c0 -10 -14 -17 -45 -20
l-45 -5 -3 -67 -3 -67 38 -3 c30 -2 38 -7 38 -23 0 -16 -8 -21 -37 -23 l-38
-3 0 -50 0 -49 44 0 c45 0 67 -19 43 -37 -10 -8 -77 -10 -124 -4 -10 1 -13 44
-13 179 0 98 3 182 7 186 4 4 37 6 73 4 50 -2 65 -6 65 -18z"/>
<path d="M5307 3704 c-13 -13 -7 -43 10 -53 15 -8 11 -16 -32 -66 -85 -99
-112 -125 -133 -125 -17 0 -22 8 -27 53 -11 86 -4 120 28 135 16 8 27 21 27
33 0 17 -8 19 -95 19 -94 0 -95 0 -95 -24 0 -17 7 -26 25 -30 16 -4 25 -13 25
-25 0 -17 -4 -18 -40 -10 -148 33 -306 29 -440 -12 -80 -24 -152 -23 -270 6
-96 23 -268 24 -365 2 -65 -15 -71 -15 -80 1 -44 74 -113 95 -302 90 l-128 -3
0 -25 c0 -17 7 -26 25 -30 l25 -6 3 -221 2 -221 -24 -6 c-26 -6 -42 -34 -27
-49 5 -5 79 -7 167 -5 138 3 164 6 199 24 88 46 114 150 54 218 -16 19 -39 38
-51 41 -18 7 -18 9 14 36 18 15 38 28 45 29 6 0 17 -26 23 -57 22 -109 71
-183 144 -220 17 -9 33 -17 35 -19 2 -2 -6 -15 -18 -30 -17 -22 -22 -24 -27
-10 -4 9 -18 16 -35 16 -43 0 -59 -32 -59 -117 0 -79 13 -103 56 -103 27 0 30
5 66 120 13 41 28 74 33 72 10 -2 11 -35 4 -200 -3 -83 -1 -94 18 -113 42 -42
90 -6 132 97 12 30 25 48 33 45 7 -2 20 -5 28 -8 22 -6 79 36 118 87 27 36 43
46 75 52 22 4 43 5 46 3 2 -3 -1 -28 -7 -56 -17 -73 -16 -174 3 -189 32 -27
75 4 131 96 10 15 14 17 25 7 18 -18 50 -16 77 3 28 19 42 11 42 -26 0 -36 24
-60 60 -60 40 0 91 63 135 167 19 47 35 89 35 94 0 5 36 9 79 9 44 0 82 4 85
9 10 16 -6 41 -30 47 -23 6 -24 9 -24 105 0 98 0 99 24 99 18 0 48 -26 112
-96 79 -86 87 -97 71 -109 -9 -7 -17 -22 -17 -35 0 -22 2 -22 83 -18 45 2 88
8 95 12 17 10 -3 46 -27 46 -9 0 -26 10 -37 23 -10 12 -56 66 -102 119 l-83
97 91 105 c54 62 101 107 116 110 19 5 25 12 22 29 -3 20 -9 22 -83 25 -45 1
-84 0 -88 -4z m-1566 -103 c36 -37 38 -79 5 -118 -22 -25 -32 -28 -106 -33
-45 -3 -84 -3 -86 -1 -2 2 -4 44 -4 93 l0 88 81 0 c76 0 82 -2 110 -29z m1130
-12 c30 -7 62 -21 76 -35 20 -20 23 -33 23 -98 0 -75 -22 -156 -42 -156 -5 0
-7 8 -4 18 16 55 17 69 2 81 -13 11 -22 11 -46 1 -32 -13 -33 -16 -51 -108
-10 -54 -15 -63 -37 -69 -38 -9 -130 13 -172 42 -49 34 -79 90 -86 163 -12
112 7 135 128 157 93 17 144 18 209 4z m-583 -23 c68 -35 78 -135 26 -243 -29
-59 -53 -78 -129 -98 -42 -10 -69 -12 -106 -5 -92 18 -138 71 -159 189 -19
104 7 147 105 172 55 14 227 5 263 -15z m761 -276 c1 -85 1 -86 -26 -96 -21
-8 -31 -22 -42 -57 -17 -58 -75 -182 -90 -191 -15 -10 -14 97 3 196 10 66 18
82 50 118 46 51 63 89 71 161 4 30 9 61 13 69 8 19 19 -91 21 -200z m-581 188
c6 -7 13 -31 17 -53 11 -61 52 -141 88 -171 29 -24 55 -38 109 -57 16 -6 16
-10 -7 -43 -13 -20 -27 -52 -31 -73 -11 -68 -54 -171 -54 -130 0 7 7 51 16 96
9 45 14 89 11 97 -8 20 -50 20 -88 1 -40 -21 -50 -12 -43 39 5 36 3 47 -15 65
-25 25 -60 17 -78 -19 l-11 -22 -11 21 c-7 11 -18 21 -26 21 -19 0 -19 3 5 50
11 22 28 68 36 103 18 70 29 87 54 87 10 0 22 -6 28 -12z m-746 -98 c72 -20
92 -98 39 -151 -28 -28 -33 -29 -120 -29 l-91 0 0 88 c0 49 3 92 7 95 10 11
124 8 165 -3z"/>
<path d="M955 3250 c-81 -9 -154 -27 -173 -43 -11 -9 -12 -34 -7 -119 l7 -107
-28 -6 c-27 -6 -338 -89 -466 -124 -31 -9 -60 -20 -64 -24 -4 -3 5 -16 19 -28
58 -45 105 -172 75 -199 -7 -6 -38 -22 -68 -33 -59 -24 -71 -47 -30 -57 l25
-6 0 -139 c0 -119 3 -146 19 -177 18 -35 18 -39 3 -56 -23 -25 -22 -27 17 -51
38 -24 66 -81 66 -134 0 -43 -9 -55 -66 -86 -27 -14 -49 -30 -49 -36 0 -5 24
-18 54 -27 30 -10 55 -19 57 -21 2 -2 -6 -23 -18 -47 -29 -59 -34 -141 -13
-221 23 -88 23 -91 -3 -105 -44 -22 -45 -30 -5 -64 50 -43 62 -66 63 -115 0
-63 -9 -82 -48 -101 -56 -25 -62 -32 -52 -59 6 -16 4 -29 -8 -46 -13 -18 -17
-46 -17 -109 0 -118 27 -172 105 -212 65 -32 463 -166 604 -202 l99 -26 416
105 c591 149 582 146 578 159 -2 6 -22 22 -46 34 -23 13 -49 35 -57 48 -14 21
-14 28 0 76 15 53 27 70 76 107 24 19 24 20 7 39 -18 19 -18 21 5 64 19 36 23
59 25 148 2 170 -1 157 34 164 44 9 33 26 -39 61 l-62 29 0 46 c0 52 41 127
84 156 14 9 26 19 26 23 0 3 -23 14 -50 24 l-50 18 17 32 c14 25 17 54 16 132
-3 179 -5 188 -38 204 -57 26 -65 39 -65 104 0 60 0 61 51 107 54 50 56 64 12
81 -27 10 -27 7 1 109 28 96 16 219 -24 255 -10 9 -103 32 -231 56 -117 22
-215 42 -217 44 -2 2 11 22 28 44 53 66 53 176 -1 209 -11 7 -43 16 -70 19
-31 4 -49 11 -49 19 0 23 -42 43 -115 53 -103 15 -280 20 -360 11z m399 -47
c17 -9 12 -12 -35 -22 -30 -7 -111 -15 -180 -18 -177 -8 -373 24 -262 42 21 4
43 8 48 11 23 9 411 -2 429 -13z m174 -120 c30 -41 -18 -120 -85 -141 -21 -6
-38 -10 -40 -8 -2 2 4 19 12 39 8 20 15 50 15 67 0 52 17 73 53 66 18 -3 38
-14 45 -23z m-714 -189 c43 -106 85 -124 280 -124 156 0 214 12 250 51 40 45
81 46 281 9 162 -30 184 -35 174 -44 -10 -9 -617 -176 -639 -176 -14 0 -65 11
-115 25 -49 14 -198 54 -330 90 -359 98 -351 96 -335 105 13 7 305 90 365 103
44 10 50 6 69 -39z m-73 -234 c438 -109 425 -105 433 -132 3 -12 3 -24 1 -26
-2 -3 -90 17 -194 43 -104 26 -196 45 -203 42 -21 -8 28 -23 214 -68 95 -23
177 -45 182 -50 5 -4 6 -14 3 -22 -5 -12 -24 -10 -124 14 -125 30 -158 34
-149 21 3 -5 49 -19 103 -32 54 -12 112 -26 128 -30 26 -6 30 -11 28 -39 0
-18 -3 -34 -5 -37 -9 -8 -781 215 -790 229 -11 17 -10 177 1 177 5 0 172 -41
372 -90z m1192 65 c18 -17 31 -96 22 -135 -10 -46 -65 -86 -157 -114 -95 -29
-530 -136 -553 -136 -9 0 -15 9 -15 24 0 22 10 26 175 65 96 24 177 47 180 52
10 15 -15 11 -186 -30 -90 -22 -167 -37 -171 -35 -16 10 -8 35 15 44 12 5 68
23 125 40 56 17 102 35 102 41 0 6 -9 7 -22 3 -108 -35 -214 -61 -221 -55 -4
4 -4 22 -1 39 7 37 -29 24 359 128 360 97 328 90 348 69z m-1376 -348 c318
-108 463 -171 463 -202 0 -22 -12 -20 -175 35 -160 54 -165 55 -165 41 0 -5
76 -35 170 -66 113 -38 170 -61 170 -71 0 -8 -6 -14 -12 -14 -11 0 -169 40
-220 56 -10 3 -18 1 -18 -4 0 -5 49 -22 109 -37 116 -29 145 -42 133 -62 -5
-9 -42 -2 -137 27 -140 42 -149 44 -141 31 3 -4 34 -16 68 -25 35 -9 74 -21
88 -26 14 -5 44 -14 68 -20 31 -8 42 -16 42 -30 0 -11 -3 -20 -7 -20 -15 0
-573 185 -621 206 -61 27 -72 48 -72 137 0 49 4 65 22 84 12 13 27 23 34 23 7
0 97 -29 201 -63z m1331 -78 c4 -40 -15 -136 -29 -145 -10 -6 -352 -79 -634
-134 -82 -17 -156 -28 -163 -25 -8 3 -12 16 -10 32 3 26 7 28 108 45 112 20
136 26 128 33 -3 3 -54 -4 -114 -15 -133 -24 -124 -24 -124 0 0 26 12 30 185
69 165 37 168 38 161 49 -3 5 -70 -6 -149 -24 -79 -18 -151 -34 -160 -36 -15
-3 -17 0 -17 21 0 13 69 37 164 57 114 24 629 112 641 110 6 -2 12 -18 13 -37z
m-1264 -313 c121 -30 301 -73 399 -97 l177 -43 0 -53 c0 -37 -4 -51 -12 -48
-44 15 -382 105 -396 105 -38 0 10 -21 118 -50 63 -17 135 -37 160 -45 25 -8
64 -19 88 -25 31 -8 42 -16 42 -30 0 -11 -5 -20 -12 -20 -6 0 -72 16 -146 36
-117 31 -158 36 -141 19 3 -2 68 -21 144 -40 77 -20 144 -41 149 -46 27 -26
-23 -17 -202 34 -108 32 -287 83 -397 115 l-200 58 -3 92 c-1 51 0 92 4 92 3
0 106 -24 228 -54z m1347 7 c14 -37 5 -137 -15 -168 -9 -13 -30 -28 -48 -33
-18 -5 -87 -26 -152 -46 -102 -31 -410 -108 -471 -118 -14 -2 -21 3 -23 19 -3
20 7 25 100 53 167 51 204 64 188 67 -8 2 -75 -15 -149 -37 -74 -22 -138 -40
-143 -40 -5 0 -8 16 -6 37 l3 36 169 48 c93 27 171 51 174 54 18 18 -24 10
-166 -30 -88 -25 -167 -45 -175 -45 -20 0 -11 37 12 49 81 43 582 178 669 180
16 1 26 -7 33 -26z m-1226 -384 c160 -49 300 -94 313 -99 17 -7 22 -18 22 -45
0 -19 -4 -35 -8 -35 -4 0 -55 16 -112 35 -57 19 -111 35 -119 35 -33 0 9 -20
119 -57 96 -33 116 -43 118 -61 2 -14 -2 -22 -11 -22 -7 0 -83 20 -168 45
-160 47 -179 51 -179 37 0 -8 128 -48 280 -88 77 -21 80 -23 70 -50 -9 -22 -9
-22 -187 27 -262 72 -425 125 -464 151 -66 45 -85 138 -42 207 19 30 11 32
368 -80z m1207 -33 c-1 -44 -7 -85 -13 -92 -5 -7 -117 -38 -247 -69 -130 -32
-307 -75 -392 -96 -85 -21 -155 -37 -156 -36 -1 1 -5 18 -9 38 l-7 36 44 7
c100 15 214 39 222 47 16 14 -31 10 -133 -11 -52 -11 -102 -20 -113 -20 -18 0
-25 24 -9 34 5 3 96 24 202 46 105 22 194 42 197 45 18 18 -29 13 -185 -19
-98 -20 -188 -39 -200 -41 -27 -6 -31 15 -8 38 16 17 27 20 355 87 135 28 281
59 325 70 44 10 91 18 105 17 25 -2 25 -3 22 -81z m32 -248 c20 -28 21 -126 2
-171 -12 -30 -22 -36 -127 -69 -130 -42 -541 -158 -558 -158 -6 0 -11 8 -11
18 0 14 26 24 138 52 75 19 129 36 120 38 -9 2 -72 -10 -139 -27 -93 -23 -125
-27 -131 -18 -12 20 2 25 126 52 66 13 121 27 124 30 14 14 -12 11 -103 -11
-114 -27 -159 -30 -153 -11 4 9 191 72 332 111 10 2 15 9 12 14 -3 5 -39 -1
-83 -14 -43 -12 -118 -34 -167 -49 -49 -14 -90 -24 -93 -22 -11 12 15 41 56
61 79 40 559 193 613 195 17 1 32 -7 42 -21z m-1449 -43 c239 -48 551 -118
608 -135 62 -19 93 -40 85 -58 -1 -5 -73 10 -158 33 -142 38 -186 45 -163 25
4 -4 73 -24 153 -45 168 -44 180 -49 180 -75 0 -24 4 -24 -110 0 -51 12 -103
20 -114 18 -12 -2 17 -11 64 -21 144 -31 160 -36 160 -55 -1 -39 -15 -47 -67
-34 -26 6 -203 50 -392 96 -188 47 -345 87 -348 90 -17 17 -31 165 -16 179 4
4 14 5 22 2 9 -2 52 -12 96 -20z m-83 -315 c102 -22 345 -98 476 -148 89 -33
126 -62 105 -83 -4 -4 -82 16 -173 46 -151 50 -189 58 -164 36 5 -5 82 -32
172 -60 l162 -52 0 -34 c0 -25 -4 -35 -16 -35 -8 0 -73 20 -144 45 -71 25
-134 45 -141 45 -29 0 11 -18 144 -65 77 -27 142 -54 144 -60 1 -5 -1 -16 -5
-22 -10 -16 -176 28 -471 124 -197 64 -204 67 -217 99 -14 34 -19 139 -8 168
8 20 30 20 136 -4z m1446 -99 c-1 -49 -6 -93 -10 -97 -6 -5 -438 -115 -785
-199 -16 -4 -23 -1 -23 9 0 17 -1 17 160 52 69 14 130 31 135 36 12 12 -43 4
-185 -28 -127 -29 -120 -28 -120 -5 0 23 8 26 242 81 98 23 180 46 184 51 8
14 -8 12 -185 -30 -91 -22 -181 -42 -198 -46 l-33 -7 0 51 c0 28 2 51 3 51 2
0 69 13 148 30 538 110 644 132 648 136 17 17 23 -7 19 -85z"/>
<path d="M2445 3165 c-16 -15 -25 -36 -25 -55 0 -16 -4 -30 -9 -30 -5 0 -19
-15 -31 -34 -16 -27 -77 -76 -94 -76 -2 0 -15 17 -30 38 -29 43 -33 74 -11 96
19 19 2 31 -25 16 -49 -26 -54 -94 -10 -143 17 -19 30 -38 30 -42 0 -4 -16
-25 -35 -48 -40 -47 -52 -92 -35 -141 31 -96 171 -26 170 86 0 18 -9 53 -20
76 l-20 44 23 19 c29 25 37 24 37 -5 0 -31 51 -86 80 -86 21 0 74 47 95 83 12
22 98 27 133 8 21 -11 22 -13 6 -43 -50 -96 -69 -214 -40 -253 26 -35 59 -5
157 142 120 180 114 174 151 161 33 -12 33 -7 -5 -108 -33 -86 -41 -148 -25
-180 31 -59 64 -33 173 135 43 66 80 122 82 124 2 3 9 -1 15 -7 25 -25 56 -13
90 36 l33 47 3 -49 c3 -42 -1 -55 -28 -90 -99 -132 -126 -285 -51 -286 26 0
77 67 96 126 10 31 21 85 24 118 6 57 10 64 56 108 58 54 58 74 0 23 -22 -19
-43 -35 -47 -35 -4 0 -8 35 -10 77 -3 86 -18 103 -43 49 -9 -19 -32 -52 -50
-73 -32 -35 -34 -36 -35 -14 0 13 7 50 15 82 30 116 -16 94 -60 -28 -36 -98
-188 -333 -216 -333 -12 0 13 73 55 163 53 114 47 150 -29 174 -28 9 -30 12
-27 55 3 38 0 48 -19 62 -30 21 -41 20 -67 -4 -27 -25 -30 -89 -6 -130 17 -27
16 -27 -82 -174 -102 -151 -134 -182 -110 -103 8 23 32 81 55 128 22 48 41 91
41 97 0 21 -43 62 -72 70 -29 7 -31 11 -32 57 -1 43 -5 51 -28 64 -26 15 -29
14 -49 -6 l-22 -21 -24 29 c-31 36 -65 38 -98 4z m-162 -272 c24 -27 30 -68
17 -108 -19 -56 -81 -76 -101 -32 -13 29 2 93 32 131 24 31 31 32 52 9z"/>
<path d="M4120 2776 c0 -8 -8 -20 -17 -25 -14 -8 -15 -12 -5 -19 28 -19 -15
-202 -47 -202 -3 0 -5 36 -3 80 4 67 1 81 -12 86 -9 4 -25 -1 -34 -9 -16 -15
-19 -15 -30 4 -17 27 -32 15 -32 -27 0 -38 -29 -102 -56 -125 -16 -13 -17 -9
-11 69 5 74 3 83 -11 80 -19 -4 -29 -40 -31 -108 -2 -70 40 -95 73 -45 14 22
19 23 37 12 25 -15 38 2 39 53 1 32 19 70 34 70 3 0 3 -24 0 -54 -9 -71 0
-106 27 -106 11 0 29 10 38 21 l17 21 17 -26 c10 -14 24 -26 31 -26 20 0 57
47 85 108 14 29 27 52 31 52 4 0 5 -25 2 -55 -7 -84 35 -115 76 -58 l20 28 22
-28 c26 -32 72 -37 92 -9 7 11 23 24 36 31 21 11 24 9 33 -18 6 -17 15 -31 20
-31 14 0 37 41 59 105 23 67 23 65 11 65 -5 0 -17 -22 -26 -50 -9 -27 -20 -50
-25 -50 -4 0 -11 20 -14 44 -6 40 -19 56 -46 56 -5 0 -8 -21 -7 -46 2 -56 -18
-71 -27 -21 -3 19 -17 44 -31 57 -36 34 -58 18 -103 -69 -20 -41 -43 -77 -51
-79 -14 -5 -14 9 5 111 6 33 4 37 -14 37 -14 0 -22 7 -24 23 -5 38 -33 27 -33
-13 -1 -39 -62 -161 -85 -168 -11 -4 -12 14 -6 99 4 58 12 107 18 111 9 5 9
10 1 20 -6 7 -11 18 -12 23 0 17 -31 18 -31 1z"/>
<path d="M4953 2765 c-13 -15 -17 -27 -11 -31 18 -11 -2 -116 -30 -161 -15
-24 -31 -43 -36 -43 -5 0 -6 23 -1 53 12 90 12 92 -13 95 -17 3 -21 8 -17 22
7 21 -12 37 -27 22 -5 -5 -11 -28 -12 -51 -4 -49 -53 -124 -84 -129 -31 -5
-36 46 -7 76 25 25 24 58 -3 79 -23 18 -49 -1 -63 -46 -14 -47 -6 -83 23 -111
44 -40 82 -18 145 85 l24 40 -6 -46 c-3 -25 -1 -58 4 -72 14 -36 54 -37 78 -1
l17 26 15 -33 c21 -44 44 -47 72 -10 l22 31 11 -23 c17 -32 51 -34 72 -2 13
20 20 23 30 14 24 -19 44 -3 44 36 0 34 23 95 36 95 4 0 3 -29 -1 -64 -10
-100 24 -138 71 -79 22 27 22 27 42 9 12 -10 26 -15 31 -11 15 9 13 -15 -4
-45 -19 -34 -19 -79 1 -87 24 -9 46 21 55 76 5 34 18 64 38 88 40 48 40 69 1
23 l-30 -34 0 52 c0 44 -3 52 -19 52 -15 0 -20 -10 -26 -55 -6 -55 -18 -71
-27 -37 -3 9 -2 37 1 62 5 34 12 47 31 57 21 10 22 13 7 19 -31 11 -65 -22
-82 -81 -9 -30 -25 -65 -35 -77 l-19 -23 -1 82 c0 45 -4 85 -10 88 -5 3 -21
-2 -35 -11 -22 -14 -25 -14 -25 -1 0 11 -29 34 -30 24 -1 -1 -3 -20 -6 -42 -7
-44 -51 -135 -67 -135 -6 0 -7 30 -3 81 6 74 5 80 -11 77 -12 -2 -20 -16 -24
-39 -6 -41 -55 -129 -71 -129 -18 0 0 202 20 218 9 7 11 12 4 12 -7 0 -12 9
-12 20 0 27 -20 25 -47 -5z"/>
<path d="M3097 2724 c-3 -3 -4 -29 -1 -58 4 -49 -3 -47 -20 7 -10 31 -96 15
-96 -18 0 -19 9 -19 31 1 10 9 25 14 34 11 26 -11 17 -27 -15 -27 -33 0 -80
-38 -80 -65 0 -20 36 -55 58 -55 9 0 24 4 32 10 9 5 19 5 26 -1 8 -7 14 -7 18
0 4 6 13 8 21 4 13 -4 15 11 15 96 0 92 -5 113 -23 95z"/>
<path d="M3438 2663 c-7 -16 -12 -76 -12 -143 0 -125 16 -203 38 -194 10 4 16
46 21 174 4 92 4 173 1 179 -13 20 -36 12 -48 -16z"/>
<path d="M2201 2643 c-84 -42 -148 -192 -153 -361 -3 -91 11 -123 38 -88 8 11
14 33 14 48 0 40 36 107 65 120 30 13 35 10 41 -30 4 -26 -4 -40 -55 -97 -69
-76 -80 -100 -57 -123 15 -15 18 -15 44 0 38 22 91 103 99 150 6 42 52 108 53
77 0 -9 9 -28 21 -43 32 -40 71 -35 110 14 35 43 79 56 79 22 0 -32 29 -62 60
-62 21 0 37 11 62 39 18 21 42 41 53 43 17 3 21 -6 31 -77 7 -44 13 -81 13
-82 1 -2 8 -3 16 -3 8 0 17 12 21 28 3 15 7 31 8 36 1 5 15 -10 32 -34 55 -82
71 -79 100 17 l15 52 47 -5 c41 -5 53 -2 95 26 l48 33 15 -22 c18 -25 42 -27
70 -6 29 22 34 18 34 -23 0 -42 21 -79 38 -68 9 6 92 142 92 152 0 2 -4 4 -8
4 -5 0 -22 -25 -38 -56 -16 -31 -32 -58 -36 -60 -25 -16 20 162 61 240 35 65
36 75 18 100 -8 11 -19 15 -31 10 -19 -7 -76 -117 -76 -146 0 -21 -4 -22 -29
-7 -33 21 -71 3 -91 -44 -23 -52 -53 -81 -104 -102 -34 -14 -41 -15 -53 -2
-23 22 -8 50 38 71 47 21 69 57 49 81 -21 26 -67 18 -105 -17 -31 -30 -36 -41
-46 -111 -10 -80 -33 -147 -48 -147 -5 0 -23 25 -40 56 l-30 56 26 39 c19 29
23 43 15 51 -8 8 -18 7 -36 -6 -51 -33 -49 -12 6 51 72 84 102 189 60 212 -20
10 -69 -6 -89 -31 -20 -24 -43 -97 -54 -172 -9 -66 -22 -91 -41 -80 -4 3 -5
29 -2 58 6 46 3 56 -19 81 -22 26 -28 28 -53 20 -20 -7 -33 -22 -44 -52 -8
-22 -23 -50 -33 -60 -9 -11 -17 -24 -17 -30 0 -9 -22 -23 -36 -23 -2 0 -4 28
-4 63 0 69 -18 107 -51 107 -26 0 -69 -43 -69 -69 0 -12 -6 -29 -14 -38 -57
-71 -69 -83 -77 -83 -5 0 -9 6 -9 13 0 8 -9 22 -21 33 -20 18 -21 18 -60 -3
-52 -28 -52 -7 0 35 65 52 131 145 131 184 0 58 -28 71 -89 41z"/>
<path d="M4992 2422 c-15 -15 -32 -37 -39 -47 -10 -19 -12 -17 -27 18 -21 48
-36 39 -37 -21 -1 -58 -11 -94 -26 -99 -8 -3 -11 13 -10 54 2 45 -1 58 -13 58
-8 0 -17 -13 -21 -31 -7 -35 -33 -77 -42 -68 -3 3 -3 40 0 81 6 70 5 75 -13
71 -16 -3 -19 -14 -22 -74 -2 -56 1 -74 13 -84 14 -11 20 -11 37 -1 17 11 22
10 35 -9 23 -33 55 -22 78 27 11 23 23 42 27 43 4 0 13 -12 20 -27 14 -30 68
-46 68 -21 1 7 8 1 16 -14 20 -38 41 -35 61 7 l17 35 22 -21 c15 -14 29 -19
43 -14 26 8 26 1 2 -34 -11 -14 -21 -42 -23 -61 -3 -30 0 -35 20 -38 18 -3 26
4 37 32 8 19 15 47 15 62 0 15 13 41 30 61 17 18 30 39 30 46 -1 7 -11 0 -23
-15 -13 -16 -26 -28 -30 -28 -4 0 -7 27 -7 61 0 77 -22 76 -33 -1 -15 -108
-51 -97 -45 13 2 50 0 62 -12 62 -10 0 -17 -14 -21 -45 -6 -47 -37 -120 -51
-120 -8 0 -3 38 13 100 8 30 6 37 -14 52 -31 24 -44 22 -75 -10z"/>
<path d="M4345 2419 c-4 -6 -19 -7 -36 -4 l-29 7 0 -76 c0 -41 5 -78 10 -81
23 -14 39 17 42 78 4 76 22 82 26 9 3 -44 6 -53 20 -50 12 2 18 15 20 40 2 20
10 42 18 48 12 11 14 2 14 -63 0 -57 4 -78 16 -88 15 -12 21 -9 48 23 31 36
32 36 45 16 9 -14 19 -18 37 -14 24 6 33 -7 13 -20 -18 -11 -40 -74 -34 -95 4
-10 15 -19 26 -19 22 0 49 52 49 96 0 15 13 41 30 61 17 18 30 39 30 46 0 7
-12 0 -25 -15 -13 -16 -27 -28 -30 -28 -3 0 -5 27 -5 61 0 77 -22 77 -32 0 -7
-57 -19 -78 -38 -66 -8 5 -11 30 -8 74 2 53 0 66 -12 66 -11 0 -16 -13 -18
-49 -3 -42 -42 -126 -60 -126 -2 0 -2 28 0 63 7 92 -17 135 -52 92 -11 -14
-14 -13 -27 5 -16 22 -28 25 -38 9z"/>
<path d="M4111 2401 c-10 -6 -12 -19 -7 -41 4 -24 0 -42 -15 -66 -32 -53 -41
-43 -33 37 6 59 4 71 -7 67 -28 -9 -39 -137 -14 -158 13 -10 19 -9 36 6 11 10
28 31 37 46 12 21 19 25 29 16 17 -14 16 -33 -2 -48 -23 -19 -18 -40 8 -40 29
0 57 29 57 57 0 11 7 26 15 33 21 18 19 32 -4 19 -15 -10 -24 -7 -55 16 -39
30 -48 50 -16 40 24 -7 27 10 4 19 -19 7 -16 8 -33 -3z"/>
<path d="M4483 2212 c-16 -10 -33 -57 -33 -90 0 -31 -20 -74 -36 -79 -7 -2
-14 14 -17 37 -13 102 -117 86 -117 -17 0 -33 6 -50 25 -68 30 -31 50 -31 78
-2 12 13 30 26 40 30 15 6 17 -2 17 -73 0 -77 1 -80 25 -86 49 -12 76 41 51
100 -13 32 -13 36 3 41 21 6 79 65 64 65 -5 0 -18 -9 -27 -19 -21 -23 -73 -43
-81 -32 -2 5 2 15 11 22 67 55 64 214 -3 171z"/>
<path d="M4683 2183 c-21 -49 -29 -173 -14 -201 15 -28 52 -28 76 -2 18 20 18
20 29 -2 17 -33 33 -32 66 3 l30 33 0 -71 c0 -49 4 -74 15 -83 21 -18 48 -8
63 24 12 23 12 34 0 64 -14 37 -14 37 21 60 30 20 35 22 43 8 17 -31 40 -46
69 -46 22 0 36 9 59 42 17 22 27 44 24 47 -3 3 -12 -3 -20 -14 -27 -38 -57
-66 -68 -62 -23 8 -23 52 1 80 13 16 23 33 23 38 0 22 -22 49 -40 49 -22 0
-50 -36 -50 -63 0 -25 -53 -77 -79 -77 -26 0 -26 1 3 45 42 62 43 155 1 155
-26 0 -43 -29 -54 -91 -10 -60 -51 -139 -71 -139 -12 0 -12 14 -1 90 5 30 7
58 4 62 -9 17 -32 -6 -38 -40 -8 -46 -53 -125 -66 -117 -19 12 -9 92 17 138
31 57 30 100 -4 105 -18 3 -26 -4 -39 -35z"/>
<path d="M3465 2051 c-341 -86 -413 -109 -430 -135 -18 -29 -110 -678 -140
-986 -13 -135 -13 -147 4 -175 46 -79 150 -98 277 -50 71 27 104 31 104 14 0
-5 26 -22 58 -36 78 -35 380 -137 530 -178 l123 -34 414 104 c493 124 525 133
525 148 0 7 -21 23 -48 37 -37 20 -48 31 -50 54 -7 56 8 96 51 137 35 35 39
43 29 59 -9 15 -8 28 8 65 16 38 20 69 20 166 0 107 2 119 18 119 9 0 23 4 31
9 22 14 -1 36 -57 57 -26 10 -50 23 -55 28 -21 30 25 142 73 178 17 12 30 25
30 29 0 9 -327 118 -465 155 -134 36 -200 39 -354 16 -74 -12 -138 -19 -141
-17 -4 2 -3 26 1 52 4 26 8 67 8 90 1 39 -2 43 -26 49 -57 12 -155 58 -183 85
-18 19 -39 29 -57 29 -15 -1 -150 -32 -298 -69z m505 -185 c0 -30 -4 -57 -9
-61 -5 -3 -58 -12 -118 -20 -59 -8 -196 -28 -303 -44 -107 -17 -196 -28 -198
-26 -3 2 -1 20 2 39 6 33 11 37 59 50 29 8 151 35 272 60 121 25 229 47 240
49 53 12 55 10 55 -47z m-871 -20 c24 -20 109 -46 153 -46 36 0 38 -1 38 -33
0 -48 -24 -223 -86 -637 -45 -299 -58 -368 -74 -384 -13 -14 -37 -21 -80 -24
-59 -4 -61 -4 -95 32 -41 43 -42 56 -20 201 9 55 25 165 36 245 18 129 80 543
94 628 7 36 11 38 34 18z m1309 -41 c80 -17 401 -113 415 -126 5 -4 -58 -23
-140 -42 -81 -20 -256 -61 -388 -92 l-241 -57 -307 98 c-169 55 -307 102 -307
105 0 7 798 125 863 128 15 1 63 -6 105 -14z m-808 -225 c274 -87 374 -118
398 -125 17 -5 22 -14 22 -41 0 -43 -4 -43 -126 1 -89 31 -119 37 -101 18 4
-3 55 -23 115 -43 87 -30 108 -41 110 -59 2 -11 -1 -21 -7 -21 -6 0 -81 21
-167 46 -137 40 -181 48 -162 29 3 -4 79 -28 169 -54 144 -42 164 -50 161 -67
-2 -10 -6 -21 -7 -23 -8 -7 -513 142 -572 169 -79 37 -107 75 -98 139 4 24 12
55 18 68 15 33 37 30 247 -37z m1246 6 c3 -7 1 -46 -3 -86 l-8 -73 -40 -13
c-22 -7 -137 -36 -255 -64 -118 -28 -268 -65 -334 -81 -65 -16 -122 -26 -127
-23 -5 3 -9 18 -9 33 0 28 1 28 113 51 108 21 164 39 125 40 -10 0 -64 -9
-120 -20 -125 -24 -118 -24 -118 -2 0 15 28 24 190 58 104 21 190 42 190 47 0
12 -27 8 -205 -28 -93 -19 -171 -32 -173 -30 -2 2 -1 13 3 24 7 22 18 25 470
120 331 70 294 64 301 47z m28 -308 c33 -47 11 -173 -34 -195 -14 -6 -115 -37
-225 -69 -110 -31 -242 -69 -294 -85 -95 -28 -111 -29 -111 -5 0 9 45 25 130
46 72 18 130 36 130 40 0 4 -54 -6 -120 -22 -110 -28 -167 -31 -144 -8 5 5 61
21 124 35 63 15 117 28 119 31 10 10 -44 3 -124 -16 -100 -23 -125 -25 -125
-7 0 11 82 38 298 99 17 5 32 14 32 20 0 6 -8 8 -17 5 -148 -44 -307 -87 -310
-84 -13 13 17 39 78 66 56 25 420 143 504 164 47 11 74 7 89 -15z m-1555 -12
c27 -29 38 -98 22 -138 -6 -16 -26 -35 -48 -46 -29 -14 -37 -23 -36 -40 2 -13
-4 -37 -13 -54 -12 -23 -15 -53 -12 -122 3 -80 1 -91 -14 -94 -14 -3 -18 3
-18 27 0 30 26 217 55 386 8 50 15 93 15 98 0 15 27 6 49 -17z m318 -52 c436
-91 523 -117 523 -150 0 -9 -6 -14 -13 -11 -43 16 -290 77 -295 73 -10 -11 3
-15 151 -55 81 -22 152 -43 157 -46 10 -6 14 -45 5 -45 -3 0 -46 9 -97 20 -50
12 -99 19 -107 17 -9 -2 20 -11 64 -21 139 -31 140 -31 143 -52 7 -46 -14 -43
-392 50 -311 77 -370 94 -377 111 -4 11 -8 50 -8 88 -1 53 2 67 14 67 8 0 113
-21 232 -46z m-172 -280 c114 -29 440 -136 485 -159 18 -9 30 -23 30 -35 0
-11 -3 -20 -7 -20 -4 0 -75 23 -159 50 -166 55 -164 54 -164 40 0 -5 72 -33
160 -61 l160 -52 0 -33 c0 -19 -4 -34 -8 -34 -5 0 -69 20 -142 45 -73 25 -135
43 -138 40 -8 -8 -3 -10 88 -40 148 -48 190 -66 190 -80 0 -8 -4 -17 -10 -20
-22 -14 -590 160 -630 193 -24 19 -37 99 -26 156 6 32 10 36 39 36 18 0 77
-12 132 -26z m1323 -91 l-3 -87 -370 -93 c-203 -51 -376 -92 -383 -90 -39 7 1
24 115 49 142 31 164 38 146 45 -6 2 -66 -7 -132 -21 -145 -31 -154 -31 -149
-9 3 14 43 27 197 63 110 26 196 51 199 58 2 7 -2 10 -10 7 -59 -20 -372 -85
-378 -78 -5 4 -5 26 -1 48 l6 40 370 76 c204 42 376 77 383 78 10 1 12 -20 10
-86z"/>
<path d="M0 280 c0 -58 3 -70 17 -70 15 0 15 -1 0 -18 -24 -26 -25 -162 -1
-162 10 0 14 -6 10 -15 -7 -20 30 -20 50 0 9 8 25 15 36 15 11 0 28 10 39 23
l18 22 1 -22 c0 -14 6 -23 16 -23 10 0 14 -6 10 -15 -7 -20 37 -20 54 0 7 8
21 15 32 15 11 0 28 10 39 23 l18 22 1 -22 c0 -14 6 -23 16 -23 10 0 14 -6 10
-15 -4 -11 1 -15 19 -15 27 0 45 25 45 62 0 13 6 30 12 37 10 11 11 14 1 18
-7 3 -13 13 -13 24 0 25 -12 24 -28 -1 -11 -18 -42 -28 -42 -14 0 4 16 26 35
50 19 23 35 53 35 67 0 13 7 30 15 37 19 16 19 30 0 30 -8 0 -15 7 -15 15 0 8
-4 15 -9 15 -5 0 -14 -7 -21 -15 -7 -8 -22 -15 -33 -15 -16 0 -18 3 -9 12 16
16 15 28 -3 28 -8 0 -15 -9 -15 -20 0 -28 -71 -105 -81 -88 -5 8 0 21 11 33
24 25 25 35 5 35 -8 0 -15 7 -15 15 0 8 -4 15 -9 15 -5 0 -14 -7 -21 -15 -7
-8 -22 -15 -33 -15 -16 0 -18 3 -9 12 16 16 15 28 -3 28 -8 0 -15 -9 -15 -20
0 -24 -75 -108 -86 -97 -4 4 2 21 14 37 26 35 27 40 7 40 -8 0 -15 7 -15 15 0
8 -4 15 -9 15 -5 0 -14 -7 -21 -15 -7 -8 -22 -15 -33 -15 -16 0 -18 3 -9 12
16 16 15 28 -3 28 -12 0 -15 -14 -15 -70z"/>
<path d="M560 250 c0 -5 7 -10 15 -10 12 0 15 -14 15 -65 0 -51 -3 -65 -15
-65 -8 0 -15 -4 -15 -10 0 -5 20 -10 45 -10 25 0 45 5 45 10 0 6 -7 10 -15 10
-9 0 -15 9 -15 25 0 21 5 25 28 25 56 0 93 55 60 88 -15 15 -148 16 -148 2z"/>
<path d="M2900 233 c-14 -2 -79 -16 -145 -29 -66 -14 -160 -34 -210 -44 -145
-29 -144 -29 -165 -71 -36 -70 -44 -70 200 -13 80 19 184 43 232 54 151 35
306 37 391 4 15 -6 16 -3 7 17 -13 29 -65 66 -111 79 -33 10 -150 11 -199 3z"/>
<path d="M923 223 c-24 -2 -43 -8 -43 -14 0 -5 5 -9 10 -9 6 0 10 -30 10 -70
0 -40 -4 -70 -10 -70 -5 0 -10 -4 -10 -9 0 -6 17 -8 38 -6 50 4 50 4 30 16
-27 15 -22 26 12 26 41 0 64 25 64 69 0 26 -7 42 -23 55 -13 11 -26 18 -30 17
-3 -1 -25 -3 -48 -5z"/>
</g>
</svg>
